# xmcd
#
# Track frame offsets:
#	150
#	13938
#	26163
#	40325
#	55570
#	71138
#	85210
#	98570
#	113825
#	127775
#	140290
#	154975
#	166683
#	178278
#	193173
#	203068
#
# Disc length: 2913 seconds
#
# Revision: 1
# Processed by: cddbd v1.5.1PL0 Copyright (c) Steve Scherf et al.
# Submitted via: CDex 1.50Beta5
#
DISCID=d70b5f10
DTITLE=石原裕次郎 - 石原裕次郎 2
DYEAR=1900
DGENRE=
TTITLE0=口笛が聞こえる港町
TTITLE1=陽のあたる坂道
TTITLE2=風速四十米
TTITLE3=明日は明日の風が吹く
TTITLE4=決闘の河
TTITLE5=足にさわった青春
TTITLE6=俺は東京のタフガイさ
TTITLE7=風速40米
TTITLE8=哀愁の12番街
TTITLE9=泣き虫酒場
TTITLE10=青春の谷間
TTITLE11=素晴らしき男性
TTITLE12=青い駒鳥の唄
TTITLE13=海峡を越えてきた男
TTITLE14=赤い波止場
TTITLE15=月影の男
EXTD=
EXTT0=
EXTT1=
EXTT2=
EXTT3=
EXTT4=
EXTT5=
EXTT6=
EXTT7=
EXTT8=
EXTT9=
EXTT10=
EXTT11=
EXTT12=
EXTT13=
EXTT14=
EXTT15=
PLAYORDER=
